<?xml version="1.0" encoding="UTF-8"?>
<svg id="Layer_1" data-name="Layer 1" xmlns="http://www.w3.org/2000/svg" version="1.1" viewBox="0 0 152.6 92.1">
  <defs>
    <style>
      .cls-1 {
        fill: #fff;
        stroke-width: 0px;
      }
    </style>
  </defs>
  <g>
    <path class="cls-1" d="M53.4,22.3c-.2.2-.4.7-.4,1v24.5c0,.3.2.4.4.2l9.6-9.7c.2-.2.4-.7.4-1v-14.1c0-.3.2-.8.4-1l11.2-11.9c.2-.2.4-.7.4-1V.2l-.4-.2-21.6,22.3h0Z"/>
    <rect class="cls-1" x="65.4" y="22.7" width="10" height="9.6"/>
    <path class="cls-1" d="M99.5.2l-9.4,9.4c-.2.2-.4.7-.4,1v11.6c0,.3-.2.6-.6.6h-.8c-.3,0-.6-.3-.6-.6v-11.6c0-.3-.2-.8-.4-1L77.9.2h-.6v37.2c0,.3.2.8.4,1l9.6,9.7c.2.2.4.2.4-.2v-14.9c0-.3.2-.6.6-.6h.8c.3,0,.6.3.6.6v14.8c0,.3.2.4.4.2l9.6-9.7c.2-.2.4-.7.4-1V.2h-.6Z"/>
  </g>
  <g>
    <path class="cls-1" d="M48.8,72.4l-4.1-9.8c0,0-.1-.1-.2-.1h-1.2c0,0-.2,0-.2.1,0,0,0,.2,0,.2l.3.4-3.9,9.2-.6.5c0,0,0,.2,0,.2,0,0,.1.1.2.1h1.8c0,0,.2,0,.2-.1s0-.2,0-.2l-.2-.3,1.1-2.7h4.1l1.1,2.7-.3.4c0,0,0,.2,0,.2,0,0,.1.1.2.1h2.2c0,0,.2,0,.2-.1,0,0,0-.2,0-.2l-.6-.5h0ZM42.5,68.7l1.5-3.7,1.6,3.7h-3.1Z"/>
    <path class="cls-1" d="M9.9,72.4l-4.1-9.8c0,0-.1-.1-.2-.1h-1.2c0,0-.2,0-.2.1,0,0,0,.2,0,.2l.3.4-3.9,9.2-.6.5c0,0,0,.2,0,.2,0,0,.1.1.2.1h1.8c0,0,.2,0,.2-.1,0,0,0-.2,0-.2l-.2-.3,1.1-2.7h4.1l1.1,2.7-.3.4c0,0,0,.2,0,.2,0,0,.1.1.2.1h2.2c0,0,.2,0,.2-.1,0,0,0-.2,0-.2l-.6-.5h0ZM6.7,68.7h-3.1l1.5-3.7,1.6,3.7Z"/>
    <path class="cls-1" d="M19.8,71.6l-.8.5h-4.4v-8.4l.5-.7c0,0,0-.2,0-.2,0,0-.1-.1-.2-.1h-2.2c0,0-.2,0-.2.1,0,0,0,.2,0,.2l.5.7v8.6l-.5.7c0,0,0,.2,0,.2,0,0,.1.1.2.1h7.2c.1,0,.2,0,.2-.2v-1.3c0,0,0-.2-.1-.2,0,0-.2,0-.2,0"/>
    <path class="cls-1" d="M36.9,62.9c0,0,0-.2,0-.2,0,0-.1-.1-.2-.1h-2.2c0,0-.2,0-.2.1,0,0,0,.2,0,.2l.5.7v3.6h-6v-3.6l.5-.7c0,0,0-.2,0-.2,0,0-.1-.1-.2-.1h-2.2c0,0-.2,0-.2.1,0,0,0,.2,0,.2l.5.7v8.6l-.5.7c0,0,0,.2,0,.2,0,0,.1.1.2.1h2.2c0,0,.2,0,.2-.1,0,0,0-.2,0-.2l-.5-.7v-3.8h6v3.8l-.5.7c0,0,0,.2,0,.2,0,0,.1.1.2.1h2.2c0,0,.2,0,.2-.1,0,0,0-.2,0-.2l-.5-.7v-8.5l.5-.7h0Z"/>
    <path class="cls-1" d="M129.4,62.9c0,0,0-.2,0-.2,0,0-.1-.1-.2-.1h-2.2c0,0-.2,0-.2.1,0,0,0,.2,0,.2l.5.7v8.6l-.5.7c0,0,0,.2,0,.2,0,0,.1.1.2.1h2.2c0,0,.2,0,.2-.1,0,0,0-.2,0-.2l-.5-.7v-8.6l.5-.7Z"/>
    <path class="cls-1" d="M141.2,62.6h-9.1c-.1,0-.2,0-.2.2v.7h0v.6c0,0,0,.2.1.2,0,0,.2,0,.2,0l.7-.5h2.9v8.5l-.5.7c0,0,0,.2,0,.2,0,0,.1.1.2.1h2.2c0,0,.2,0,.2-.1,0,0,0-.2,0-.2l-.5-.7v-8.5h2.9l.7.5c0,0,.2,0,.2,0,0,0,.1-.1.1-.2v-1.3c0-.1-.1-.2-.2-.2"/>
    <path class="cls-1" d="M57.8,67.7c1-.4,1.7-1.3,1.7-2.3,0-1.8-1.4-2.8-3.9-2.8h-3.9c0,0-.2,0-.2.1,0,0,0,.2,0,.2l.5.7v8.6l-.5.7c0,0,0,.2,0,.2,0,0,.1.1.2.1h4.3c2.5,0,3.9-1.1,3.9-3s-.8-2.2-2.1-2.6M55.4,67.2h-1.9v-3.4h1.9c1.1,0,2.4.3,2.4,1.7s-.8,1.7-2.4,1.7M58.2,70.2c0,1.5-1.3,1.8-2.5,1.8h-2.2v-3.7h2c1.8,0,2.7.6,2.7,1.8"/>
    <path class="cls-1" d="M152.6,62.9c0,0,0-.2,0-.2,0,0-.1-.1-.2-.1h-1.5c0,0-.2,0-.2.1,0,0,0,.2,0,.2l.2.3-2.7,4.3-2.7-4.3.2-.3c0,0,0-.2,0-.2,0,0-.1-.1-.2-.1h-1.9c0,0-.1,0-.2.1,0,0,0,.2,0,.2l3.8,6v3.3l-.5.8c0,0,0,.2,0,.2,0,0,.1.1.2.1h2.2c0,0,.2,0,.2-.1,0,0,0-.2,0-.2l-.5-.7v-3.4l3.8-6h0Z"/>
    <path class="cls-1" d="M107.2,71.6l-.6-1.7c-.3-.8-.6-1.4-1.3-1.7,1.1-.3,2.1-1.1,2.1-2.6s-1.4-3-4-3h-4.2c0,0-.2,0-.2.1,0,0,0,.2,0,.2l.5.7v8.6l-.5.7c0,0,0,.2,0,.2,0,0,.1.1.2.1h2.2c0,0,.2,0,.2-.1,0,0,0-.2,0-.2l-.5-.7v-3.5h2c1.3,0,1.7.4,2.1,1.5l.6,1.7c0,.2.2.5.4.8l-.2.3c0,0,0,.2,0,.2,0,0,.1.1.2.1h1.8c0,0,.2,0,.2-.1,0,0,0-.2,0-.2-.3-.3-.6-.8-.8-1.3M105.6,65.6c0,1.3-.8,2-2.5,2h-2.2v-3.8h2.2c1.7,0,2.5.6,2.5,1.8"/>
    <path class="cls-1" d="M123.6,69.9c0,0-.1,0-.2,0,0,0-.1,0-.1.1-.7,1.5-1.7,2.2-3.2,2.2s-3.6-1.3-3.6-4.2,1.5-4.2,3.7-4.2,2.5.7,3.2,2.1c0,0,0,.1.2.1,0,0,.1,0,.2,0l.7-.6c0,0,0-.2,0-.3-.9-1.7-2.4-2.6-4.3-2.6-3.1,0-5.4,2.4-5.4,5.6s2.3,5.4,5.3,5.4,3.4-.9,4.3-2.8c0,0,0-.2,0-.3l-.7-.4h0Z"/>
    <path class="cls-1" d="M91.1,62.4c-3,0-5.3,2.4-5.3,5.5s2.3,5.5,5.3,5.5,5.3-2.4,5.3-5.5-2.3-5.5-5.3-5.5M91.1,72.2c-2.2,0-3.5-1.7-3.5-4.3s1.4-4.3,3.5-4.3,3.5,1.7,3.5,4.3-1.4,4.3-3.5,4.3"/>
    <path class="cls-1" d="M71.4,62.6h-9.1c-.1,0-.2,0-.2.2v1.3c0,0,0,.2.1.2,0,0,.2,0,.2,0l.7-.5h2.9v8.5l-.5.7c0,0,0,.2,0,.2,0,0,.1.1.2.1h2.2c0,0,.2,0,.2-.1,0,0,0-.2,0-.2l-.5-.7v-8.5h2.9l.7.5c0,0,.2,0,.2,0,0,0,.1-.1.1-.2v-1.3c0-.1,0-.2-.2-.2"/>
    <path class="cls-1" d="M78.4,62.4c-3,0-5.3,2.4-5.3,5.5s2.3,5.5,5.3,5.5,5.3-2.4,5.3-5.5-2.3-5.5-5.3-5.5M81.9,67.9c0,2.6-1.4,4.3-3.5,4.3s-3.5-1.7-3.5-4.3,1.4-4.3,3.5-4.3,3.5,1.7,3.5,4.3"/>
  </g>
  <g>
    <path class="cls-1" d="M147.4,77.2c-.1-.1-.3-.2-.5-.2-.2,0-.5,0-.9,0h-.3c-.1,0-.2,0-.2.2h0c0,.2,0,.3.1.3.1,0,.2.2.3.3,0,.1.1.2.1.4v9.4c0,0,0,0,0,.2h-4.4s0,0,0,0c-.4-.2-.6-.5-.7-.8,0-.2-.1-.4-.1-.6,0-.4,0-.7,0-1.1v-.7c0-.4-.1-.8-.3-1.1-.2-.3-.4-.6-.8-.8-.8-.6-1.8-.8-2.7-.6-.5,0-1,.3-1.4.6,0,0-.2.1-.2.2,0,0,0,.2,0,.2h0c0,.1,0,.2.1.3,0,0,.2,0,.2,0,.4-.4.9-.6,1.5-.6h.1c.5,0,1,.2,1.3.6.3.3.5.8.5,1.3v.2c0,.4,0,.9,0,1.3,0,.6.2,1.1.5,1.5,0,0,0,0,0,0h-.4c-.3,0-.6,0-1.1,0-.8,0-10.7,0-11.6,0v-4.8c0-.3,0-.5-.3-.7-.2-.2-.4-.3-.7-.3-.2,0-.3,0-.4,0h-.5s0,0,0,0c0,0-.2.1-.2.2h0c0,.2,0,.3.1.3.2,0,.3.2.3.3,0,.2,0,.3,0,.4v4.4s0,0,0,0h-10.6v-4.6c0-.2,0-.4,0-.5,0-.2-.1-.3-.2-.4-.1-.1-.2-.2-.4-.2-.3,0-.7,0-1,0h-.2c0,0-.2,0-.2.2h0c0,.2,0,.2,0,.3,0,0,0,0,.2.1.2,0,.2.2.2.3,0,.2,0,.3,0,.5v4.3h0c0,.1,0,.1,0,.1h-.2c0,0-11.7,0-12.6,0h-.2v-4.1c0-.1,0-.3,0-.4,0-.3,0-.5-.2-.7-.1-.2-.3-.3-.6-.5-.2,0-.5-.1-.8-.1h-2.1c-.1,0-.2,0-.4,0-.5,0-.8.2-1.1.4-.2.2-.4.6-.4,1v4.2c0,.3,0,.5.2.7.2.2.3.3.6.4.2,0,.5.1.8.1h2.2c0,0,0,.2,0,.3,0,.5-.2.9-.6,1.2-.4.3-.8.5-1.4.5s-1-.2-1.4-.5c0,0-.2,0-.2,0,0,0-.1.1-.1.2v.2c0,0,0,.1,0,.2,0,0,0,0,.1.1s.1,0,.2.1c.2.1.3.2.5.3.5.2.9.3,1.4.3.7,0,1.5-.2,2.2-.7.6-.4,1-1.1,1-1.8h0v-.3h47.8s0,0,0,0c.1,0,.2,0,.2-.2v-10.6c0-.1,0-.2,0-.3,0-.2-.1-.4-.2-.5M95.6,82.8h0s0,0,0,0h0ZM98,87.7h-1.6c0,0-.2,0-.3,0s-.2,0-.2-.2c-.1-.2-.2-.3-.2-.5v-4.1h0c0,0,.2,0,.3,0,.3,0,.6,0,.9,0h.8c0,0,.1,0,.2,0v4.7h0ZM98,82.8h0s0,0,0,0h0ZM99.5,88.7h0s0,0,0,0h0Z"/>
    <path class="cls-1" d="M92.2,83.6v-.6c0-.2,0-.4,0-.5,0-.2-.1-.3-.2-.4,0,0-.2-.2-.4-.2-.2,0-.5,0-.7,0h-.6c-.1,0-.2,0-.2.2h0c0,.2,0,.3.1.3.1,0,.2.2.3.3s0,.3,0,.5v5.9c0,.4-.2.8-.5,1.1-.4.3-.8.5-1.4.6h-.1c-.5,0-1-.2-1.4-.5,0,0-.2,0-.2,0,0,0-.1.1-.1.2h0v.2c0,0,0,.2,0,.2,0,0,0,.1.2.2h.2c.2.2.3.3.5.4.4.2.9.3,1.4.3.7,0,1.3-.2,1.9-.6h0c.4-.2.7-.5.9-.9s.3-.8.3-1.3c0-.8,0-1.6,0-2.4v-2.9h0Z"/>
    <path class="cls-1" d="M151.9,76.9h-.5c-.2,0-.4,0-.6,0h0c-.2,0-.3.1-.4.2-.1.1-.2.2-.2.4,0,.2,0,.3,0,.5v9.8h0c0,.2,0,.2,0,.3,0,.2.1.3.2.5.1.1.3.2.4.2.1,0,.2,0,.3,0h.4c.1,0,.2,0,.2-.2v-10.3h0c0-.3,0-.4,0-.6s.2-.2.3-.3c0,0,.1-.1.1-.2h0c0-.2-.2-.3-.3-.3"/>
    <path class="cls-1" d="M76.6,83.3c-.2-.2-.4-.2-.7-.2h-.9s0,0,0,0c0,0-.2,0-.2.2,0,0,0,0,0,0,0,0,0,.1,0,.2,0,0,0,0,.2.1.2,0,.2.3.2.3,0,.1,0,.3,0,.5v4.3s0,0,0,.1h-5.9v-4.6c0-.1,0-.2,0-.3,0-.2,0-.4-.2-.5-.1-.2-.3-.2-.5-.3-.2,0-.6,0-.9,0h-.3c-.1,0-.2,0-.2.2h0c0,.2,0,.3.1.3.1,0,.2.2.3.3s0,.3,0,.5v4.4s0,0,0,.1h-5.6v-4.5c0-.2,0-.3,0-.5,0-.2,0-.4-.2-.5-.1-.1-.3-.2-.5-.3-.2,0-.6,0-.9,0h-.3c-.1,0-.2,0-.2.2h0c0,.2,0,.3.1.3.2.1.3.3.4.5,0,.1,0,.2,0,.3v4.5h-13.4v-4.8c0-.3,0-.6-.3-.7-.2-.2-.4-.3-.7-.3h-1c-.1,0-.2.1-.2.2h0c0,.2,0,.3.1.3.1,0,.2.2.3.3,0,.1,0,.3,0,.6v4.3s0,0,0,.1h-6.4v-4.6c0-.2,0-.3,0-.5,0-.2-.1-.4-.2-.5-.1-.1-.3-.2-.5-.2-.2,0-.5,0-.6,0h-.6c-.1,0-.2,0-.2.2h0c0,0,0,.2,0,.2,0,0,0,.1.2.2,0,0,.2.1.2.2,0,0,0,.2,0,.3,0,.1,0,.3,0,.4v4.3h-.4c-.3,0-.7,0-1.2,0h-3.5c-2.3,0-12,0-13.2,0-.4,0-.6,0-.7,0v-4.5c0-.3-.1-.6-.3-.8-.2-.2-.4-.4-.7-.4-.2,0-.4,0-.7,0h-4c-.2,0-.4,0-.6,0-.4,0-.6.2-.8.4-.2.2-.3.5-.3.9h0v4.5c-.6,0-3.7,0-3.9,0h-3.9c-.2,0-.4,0-.6-.2-.2-.1-.3-.3-.4-.5,0-.2-.1-.4-.1-.6,0-.7,0-1.3,0-2h0c0-.6.2-1,.7-1.3.8-.6,2-.5,2.7.2,0,0,0,0,0,0,0,0,.1,0,.2,0s0,0,.1-.2c0,0,0-.1,0-.2,0-.1,0-.2-.1-.3,0,0-.2-.2-.3-.3,0,0-.1,0-.2-.1-1.3-.6-2.6-.5-3.8.3-.6.4-.9,1-.9,1.8h0c0,1,0,1.7,0,2.3,0,.5.2,1,.5,1.3.3.4.7.6,1.2.7.3,0,.6,0,1,0h9.1s0,0,.1,0c.1,0,.2-.1.2-.2v-5.6c0,0,.2,0,.3,0h2.4c.5,0,.9,0,1.2,0h0v4.9c0,.3.1.5.3.7s.4.2.7.3h59.1c.1,0,.2,0,.2-.2v-5.5c0,0,0-.2,0-.3,0-.3-.1-.5-.3-.7"/>
    <path class="cls-1" d="M5.7,90.7c0,0-.2,0-.3,0l-.5.5-.5-.5s0,0-.2,0-.1,0-.2,0l-.5.5c0,0,0,.2,0,.3l.5.5s0,0,.2,0,.1,0,.2,0l.5-.5.5.5s0,0,.2,0,.1,0,.2,0l.5-.5s0,0,0-.2,0-.1,0-.2l-.5-.5h0Z"/>
    <path class="cls-1" d="M37,82.4s0,0,.2,0,.1,0,.2,0l.5-.5.5.5s0,0,.2,0,.1,0,.2,0l.5-.5c0,0,0-.2,0-.3l-.5-.5s0,0-.2,0-.1,0-.2,0l-.5.5-.5-.5c0,0-.2,0-.3,0l-.5.5c0,0,0,.2,0,.3l.5.5h0Z"/>
    <path class="cls-1" d="M119.4,89.5s0,0-.2,0-.1,0-.2,0l-.5.5s0,0,0,.2,0,.1,0,.2l.5.5s0,0,.2,0,.1,0,.2,0l.5-.5c0,0,0-.2,0-.3l-.5-.5h0Z"/>
    <path class="cls-1" d="M112.4,81.2s0,0,.2,0,.1,0,.2,0l.5-.5.5.5s0,0,.2,0,.1,0,.2,0l.5-.5c0,0,0-.2,0-.3l-.5-.5s0,0-.2,0-.1,0-.2,0l-.5.5-.5-.5s0,0-.2,0-.1,0-.2,0l-.5.5c0,0,0,.2,0,.3l.5.5Z"/>
    <path class="cls-1" d="M47,90.7s0,0-.2,0-.1,0-.2,0l-.5.5-.5-.5c0,0-.2,0-.3,0l-.5.5c0,0,0,.2,0,.3l.5.5s0,0,.2,0,.1,0,.2,0l.5-.5.5.5s0,0,.2,0,.1,0,.2,0l.5-.5c0,0,0-.2,0-.3l-.5-.5h0Z"/>
  </g>
</svg>